<svg width="286" height="62" viewBox="0 0 286 62" fill="none" xmlns="http://www.w3.org/2000/svg">
<g clip-path="url(#clip0_971_513)">
<path d="M23.5221 0H38.7133C38.7133 0 38.78 8.68598 37.4882 13.2311C36.1965 17.7762 32.0978 23.2769 32.0978 23.2769H0.490234C0.490234 23.2769 13.7313 21.6442 19.3568 14.4562C23.7671 8.82072 23.5221 0 23.5221 0Z" fill="white"/>
<path d="M38.7123 61.5H23.521C23.521 61.5 23.4544 52.814 24.7461 48.2689C26.0379 43.7238 30.1366 38.2231 30.1366 38.2231H61.7441C61.7441 38.2231 48.503 39.8558 42.8776 47.0438C38.4672 52.6793 38.7123 61.5 38.7123 61.5Z" fill="white"/>
<rect y="23.0312" width="61.745" height="15.1912" fill="white"/>
<path d="M86.904 48L103.512 13.92H113.688L130.296 48H120.072L116.328 39.936H100.248L96.552 48H86.904ZM103.32 33.408H113.352L108.36 22.656L103.32 33.408ZM147.2 48.576C143.904 48.576 140.96 48.08 138.368 47.088C135.776 46.096 133.728 44.64 132.224 42.72C130.752 40.8 130.016 38.448 130.016 35.664C130.016 32.848 130.72 30.48 132.128 28.56C133.536 26.64 135.504 25.2 138.032 24.24C140.592 23.248 143.552 22.752 146.912 22.752C150.464 22.752 153.472 23.312 155.936 24.432C158.4 25.52 160.224 27.168 161.408 29.376C162.624 31.552 163.072 34.256 162.752 37.488H139.376C139.536 38.832 140.24 39.968 141.488 40.896C142.768 41.824 144.672 42.288 147.2 42.288C149.44 42.288 151.04 42.032 152 41.52C152.992 41.008 153.712 40.336 154.16 39.504L162.656 40.416C161.952 43.072 160.208 45.104 157.424 46.512C154.64 47.888 151.232 48.576 147.2 48.576ZM147.008 28.56C144.608 28.56 142.8 28.976 141.584 29.808C140.4 30.608 139.68 31.584 139.424 32.736H154.256C154.064 31.392 153.36 30.368 152.144 29.664C150.96 28.928 149.248 28.56 147.008 28.56ZM181.787 48.576C179.483 48.576 177.435 48.32 175.643 47.808C173.883 47.264 172.491 46.368 171.467 45.12C170.443 43.84 169.931 42.112 169.931 39.936V29.424H164.027V23.328H170.123L171.275 15.696H179.243V23.328H189.659V29.424H179.243V38.832C179.243 39.824 179.483 40.56 179.963 41.04C180.443 41.52 181.067 41.84 181.835 42C182.603 42.128 183.403 42.192 184.235 42.192C185.131 42.192 186.059 42.128 187.019 42C188.011 41.872 189.051 41.728 190.139 41.568V47.616C188.635 47.936 187.227 48.176 185.915 48.336C184.635 48.496 183.259 48.576 181.787 48.576ZM193.371 48V13.92H202.683V25.536C204.731 23.68 207.691 22.752 211.563 22.752C212.875 22.752 214.219 22.896 215.595 23.184C216.971 23.472 218.235 23.984 219.387 24.72C220.539 25.424 221.467 26.416 222.171 27.696C222.907 28.944 223.275 30.528 223.275 32.448V48H213.963V33.408C213.963 31.936 213.451 30.88 212.427 30.24C211.403 29.568 210.043 29.232 208.347 29.232C206.651 29.232 205.291 29.568 204.267 30.24C203.243 30.88 202.715 31.936 202.683 33.408V48H193.371ZM244.044 48.576C240.748 48.576 237.804 48.08 235.212 47.088C232.62 46.096 230.572 44.64 229.068 42.72C227.596 40.8 226.86 38.448 226.86 35.664C226.86 32.848 227.564 30.48 228.972 28.56C230.38 26.64 232.348 25.2 234.876 24.24C237.436 23.248 240.396 22.752 243.756 22.752C247.308 22.752 250.316 23.312 252.78 24.432C255.244 25.52 257.068 27.168 258.252 29.376C259.468 31.552 259.916 34.256 259.596 37.488H236.22C236.38 38.832 237.084 39.968 238.332 40.896C239.612 41.824 241.516 42.288 244.044 42.288C246.284 42.288 247.884 42.032 248.844 41.52C249.836 41.008 250.556 40.336 251.004 39.504L259.5 40.416C258.796 43.072 257.052 45.104 254.268 46.512C251.484 47.888 248.076 48.576 244.044 48.576ZM243.852 28.56C241.452 28.56 239.644 28.976 238.428 29.808C237.244 30.608 236.524 31.584 236.268 32.736H251.1C250.908 31.392 250.204 30.368 248.988 29.664C247.804 28.928 246.092 28.56 243.852 28.56ZM263.637 48V23.328H272.805V26.736C273.925 25.36 275.333 24.352 277.029 23.712C278.725 23.072 280.485 22.752 282.309 22.752C282.661 22.752 283.077 22.768 283.557 22.8C284.037 22.832 284.565 22.896 285.141 22.992V30.144C284.277 30.048 283.301 29.968 282.213 29.904C281.157 29.84 280.085 29.856 278.997 29.952C277.909 30.048 276.901 30.288 275.973 30.672C275.077 31.024 274.341 31.6 273.765 32.4C273.221 33.2 272.949 34.288 272.949 35.664V48H263.637Z" fill="white"/>
</g>
<defs>
<clipPath id="clip0_971_513">
<rect width="286" height="62" fill="white"/>
</clipPath>
</defs>
</svg>
